<mxfile host="app.diagrams.net" modified="2021-07-21T09:51:01.636Z" agent="5.0 (Windows NT 10.0; Win64; x64) AppleWebKit/537.36 (KHTML, like Gecko) Chrome/91.0.4472.164 Safari/537.36" etag="nQfZwN6KprxRxBdEIXNL" version="14.9.0" type="github">
  <diagram id="C5RBs43oDa-KdzZeNtuy" name="Page-1">
    <mxGraphModel dx="920" dy="605" grid="1" gridSize="10" guides="1" tooltips="1" connect="1" arrows="1" fold="1" page="1" pageScale="1" pageWidth="827" pageHeight="1169" math="0" shadow="0">
      <root>
        <mxCell id="WIyWlLk6GJQsqaUBKTNV-0" />
        <mxCell id="WIyWlLk6GJQsqaUBKTNV-1" parent="WIyWlLk6GJQsqaUBKTNV-0" />
        <mxCell id="WIyWlLk6GJQsqaUBKTNV-2" value="" style="rounded=0;html=1;jettySize=auto;orthogonalLoop=1;fontSize=11;endArrow=block;endFill=0;endSize=8;strokeWidth=1;shadow=0;labelBackgroundColor=none;edgeStyle=orthogonalEdgeStyle;entryX=0.5;entryY=0;entryDx=0;entryDy=0;" parent="WIyWlLk6GJQsqaUBKTNV-1" source="WIyWlLk6GJQsqaUBKTNV-3" target="GbMy84H_XjOFSy2wGLOZ-0" edge="1">
          <mxGeometry relative="1" as="geometry" />
        </mxCell>
        <mxCell id="WIyWlLk6GJQsqaUBKTNV-3" value="担保业务系统生成&lt;br&gt;待收费记录" style="rounded=1;whiteSpace=wrap;html=1;fontSize=12;glass=0;strokeWidth=1;shadow=0;" parent="WIyWlLk6GJQsqaUBKTNV-1" vertex="1">
          <mxGeometry x="375" y="50" width="120" height="40" as="geometry" />
        </mxCell>
        <mxCell id="GbMy84H_XjOFSy2wGLOZ-0" value="项目经理下载缴费二维码并发送给客户" style="rounded=1;whiteSpace=wrap;html=1;fontSize=12;glass=0;strokeWidth=1;shadow=0;" vertex="1" parent="WIyWlLk6GJQsqaUBKTNV-1">
          <mxGeometry x="375" y="130" width="120" height="40" as="geometry" />
        </mxCell>
        <mxCell id="GbMy84H_XjOFSy2wGLOZ-1" value="用于扫码打开收费链接，展示项目基本情况（项目名字，产品，费率 ，金额）" style="rounded=1;whiteSpace=wrap;html=1;fontSize=12;glass=0;strokeWidth=1;shadow=0;" vertex="1" parent="WIyWlLk6GJQsqaUBKTNV-1">
          <mxGeometry x="360" y="210" width="150" height="80" as="geometry" />
        </mxCell>
        <mxCell id="GbMy84H_XjOFSy2wGLOZ-4" value="通过微信扫码，进入微信公众号网页" style="rounded=1;whiteSpace=wrap;html=1;" vertex="1" parent="WIyWlLk6GJQsqaUBKTNV-1">
          <mxGeometry x="150" y="360" width="120" height="60" as="geometry" />
        </mxCell>
        <mxCell id="GbMy84H_XjOFSy2wGLOZ-5" value="仅显示微信支付" style="rounded=1;whiteSpace=wrap;html=1;" vertex="1" parent="WIyWlLk6GJQsqaUBKTNV-1">
          <mxGeometry x="150" y="470" width="120" height="60" as="geometry" />
        </mxCell>
        <mxCell id="GbMy84H_XjOFSy2wGLOZ-6" value="通过支付宝扫码，进入支付宝服务页面" style="rounded=1;whiteSpace=wrap;html=1;" vertex="1" parent="WIyWlLk6GJQsqaUBKTNV-1">
          <mxGeometry x="382" y="360" width="120" height="60" as="geometry" />
        </mxCell>
        <mxCell id="GbMy84H_XjOFSy2wGLOZ-7" value="仅显示支付宝支付" style="rounded=1;whiteSpace=wrap;html=1;" vertex="1" parent="WIyWlLk6GJQsqaUBKTNV-1">
          <mxGeometry x="382" y="470" width="120" height="60" as="geometry" />
        </mxCell>
        <mxCell id="GbMy84H_XjOFSy2wGLOZ-9" value="调用威富通微信公众号&amp;amp;小程序支付接口" style="rounded=1;whiteSpace=wrap;html=1;" vertex="1" parent="WIyWlLk6GJQsqaUBKTNV-1">
          <mxGeometry x="150" y="600" width="120" height="60" as="geometry" />
        </mxCell>
        <mxCell id="GbMy84H_XjOFSy2wGLOZ-11" value="调用威富通微信公众号&amp;amp;小程序支付接口" style="rounded=1;whiteSpace=wrap;html=1;" vertex="1" parent="WIyWlLk6GJQsqaUBKTNV-1">
          <mxGeometry x="382" y="600" width="120" height="60" as="geometry" />
        </mxCell>
        <mxCell id="GbMy84H_XjOFSy2wGLOZ-12" value="通过手机浏览器扫码，进入支付宝服务页面" style="rounded=1;whiteSpace=wrap;html=1;" vertex="1" parent="WIyWlLk6GJQsqaUBKTNV-1">
          <mxGeometry x="582" y="360" width="120" height="60" as="geometry" />
        </mxCell>
        <mxCell id="GbMy84H_XjOFSy2wGLOZ-13" value="仅显示银联支付" style="rounded=1;whiteSpace=wrap;html=1;" vertex="1" parent="WIyWlLk6GJQsqaUBKTNV-1">
          <mxGeometry x="582" y="470" width="120" height="60" as="geometry" />
        </mxCell>
        <mxCell id="GbMy84H_XjOFSy2wGLOZ-14" value="调用威富通银联wap支付接口" style="rounded=1;whiteSpace=wrap;html=1;" vertex="1" parent="WIyWlLk6GJQsqaUBKTNV-1">
          <mxGeometry x="582" y="600" width="120" height="60" as="geometry" />
        </mxCell>
        <mxCell id="GbMy84H_XjOFSy2wGLOZ-15" value="支付完成，返回支付结果到业务系统" style="rounded=1;whiteSpace=wrap;html=1;" vertex="1" parent="WIyWlLk6GJQsqaUBKTNV-1">
          <mxGeometry x="382" y="740" width="120" height="60" as="geometry" />
        </mxCell>
      </root>
    </mxGraphModel>
  </diagram>
</mxfile>
